<?xml version="1.0" encoding="UTF-8" standalone="no"?>
<!-- Created with Inkscape (http://www.inkscape.org/) -->

<svg
   width="1000.0001"
   height="999.99994"
   viewBox="0 0 264.58324 264.58321"
   version="1.1"
   id="svg5"
   xml:space="preserve"
   xmlns:inkscape="http://www.inkscape.org/namespaces/inkscape"
   xmlns:sodipodi="http://sodipodi.sourceforge.net/DTD/sodipodi-0.dtd"
   xmlns="http://www.w3.org/2000/svg"
   xmlns:svg="http://www.w3.org/2000/svg"><sodipodi:namedview
     id="namedview7"
     pagecolor="#505050"
     bordercolor="#ffffff"
     borderopacity="1"
     inkscape:showpageshadow="true"
     inkscape:pageopacity="0"
     inkscape:pagecheckerboard="1"
     inkscape:deskcolor="#505050"
     inkscape:document-units="mm"
     showgrid="false" /><defs
     id="defs2"><linearGradient
       x1="0"
       y1="0"
       x2="1"
       y2="0"
       gradientUnits="userSpaceOnUse"
       gradientTransform="matrix(-29.605696,10.775593,10.775593,29.605696,747.31262,414.91568)"
       spreadMethod="pad"
       id="linearGradient291"><stop
         style="stop-opacity:1;stop-color:#96c93d"
         offset="0"
         id="stop283" /><stop
         style="stop-opacity:1;stop-color:#96c93d"
         offset="0.0895647"
         id="stop285" /><stop
         style="stop-opacity:1;stop-color:#058341"
         offset="0.84973678"
         id="stop287" /><stop
         style="stop-opacity:1;stop-color:#058341"
         offset="1"
         id="stop289" /></linearGradient><linearGradient
       x1="0"
       y1="0"
       x2="1"
       y2="0"
       gradientUnits="userSpaceOnUse"
       gradientTransform="matrix(-48.392208,8.5328522,8.5328522,48.392208,747.75562,450.48856)"
       spreadMethod="pad"
       id="linearGradient315"><stop
         style="stop-opacity:1;stop-color:#80c341"
         offset="0"
         id="stop307" /><stop
         style="stop-opacity:1;stop-color:#058341"
         offset="0.42257648"
         id="stop309" /><stop
         style="stop-opacity:1;stop-color:#058341"
         offset="0.678193"
         id="stop311" /><stop
         style="stop-opacity:1;stop-color:#058341"
         offset="1"
         id="stop313" /></linearGradient><linearGradient
       x1="0"
       y1="0"
       x2="1"
       y2="0"
       gradientUnits="userSpaceOnUse"
       gradientTransform="matrix(25.487976,-14.71549,-14.71549,-25.487976,672.4762,453.9642)"
       spreadMethod="pad"
       id="linearGradient337"><stop
         style="stop-opacity:1;stop-color:#96c93d"
         offset="0"
         id="stop331" /><stop
         style="stop-opacity:1;stop-color:#96c93d"
         offset="0.3290752"
         id="stop333" /><stop
         style="stop-opacity:1;stop-color:#058341"
         offset="1"
         id="stop335" /></linearGradient><linearGradient
       x1="0"
       y1="0"
       x2="1"
       y2="0"
       gradientUnits="userSpaceOnUse"
       gradientTransform="matrix(47.847378,0,0,-47.847378,682.61975,461.05045)"
       spreadMethod="pad"
       id="linearGradient361"><stop
         style="stop-opacity:1;stop-color:#96c93d"
         offset="0"
         id="stop353" /><stop
         style="stop-opacity:1;stop-color:#96c93d"
         offset="0.0674027"
         id="stop355" /><stop
         style="stop-opacity:1;stop-color:#96c93d"
         offset="0.10164788"
         id="stop357" /><stop
         style="stop-opacity:1;stop-color:#058341"
         offset="1"
         id="stop359" /></linearGradient><linearGradient
       x1="0"
       y1="0"
       x2="1"
       y2="0"
       gradientUnits="userSpaceOnUse"
       gradientTransform="matrix(13.816039,-11.593034,-11.593034,-13.816039,682.23572,421.22195)"
       spreadMethod="pad"
       id="linearGradient387"><stop
         style="stop-opacity:1;stop-color:#96c93d"
         offset="0"
         id="stop377" /><stop
         style="stop-opacity:1;stop-color:#96c93d"
         offset="0.0674027"
         id="stop379" /><stop
         style="stop-opacity:1;stop-color:#96c93d"
         offset="0.09740548"
         id="stop381" /><stop
         style="stop-opacity:1;stop-color:#058341"
         offset="0.884467"
         id="stop383" /><stop
         style="stop-opacity:1;stop-color:#058341"
         offset="1"
         id="stop385" /></linearGradient><linearGradient
       x1="0"
       y1="0"
       x2="1"
       y2="0"
       gradientUnits="userSpaceOnUse"
       gradientTransform="matrix(0,26.884029,26.884029,0,704.7594,397.40961)"
       spreadMethod="pad"
       id="linearGradient413"><stop
         style="stop-opacity:1;stop-color:#96c93d"
         offset="0"
         id="stop403" /><stop
         style="stop-opacity:1;stop-color:#96c93d"
         offset="0.0674027"
         id="stop405" /><stop
         style="stop-opacity:1;stop-color:#96c93d"
         offset="0.09740548"
         id="stop407" /><stop
         style="stop-opacity:1;stop-color:#058341"
         offset="0.884467"
         id="stop409" /><stop
         style="stop-opacity:1;stop-color:#058341"
         offset="1"
         id="stop411" /></linearGradient></defs><g
     id="g271"
     transform="matrix(2.5528787,0,0,-2.5528787,-1687.775,1279.0629)"><g
       id="g273"><g
         id="g279"><g
           id="g281"><path
             d="m 741.443,434.427 c -7.067,0 -12.817,-5.718 -12.817,-12.748 v 0 c 0,-2.822 0.938,-5.424 2.505,-7.538 v 0 l -17.638,-0.028 0.007,-5.201 27.475,0.044 c 0.157,-0.007 0.311,-0.024 0.468,-0.024 v 0 0.024 l 3.702,0.006 -0.007,5.201 -4.164,-0.007 c -3.981,0.243 -7.147,3.52 -7.147,7.523 v 0 c 0,4.161 3.417,7.547 7.616,7.547 v 0 h 2.566 v 5.201 z"
             style="fill:url(#linearGradient291);stroke:none"
             id="path293" /></g></g></g></g><g
     id="g295"
     transform="matrix(2.5528787,0,0,-2.5528787,-1687.775,1279.0629)"><g
       id="g297"><g
         id="g303"><g
           id="g305"><path
             d="m 728.634,481.693 v -5.202 h 10.171 l 0.003,-42.048 h -43.779 v -5.2 h 48.98 l -0.003,52.45 z"
             style="fill:url(#linearGradient315);stroke:none"
             id="path317" /></g></g></g></g><g
     id="g319"
     transform="matrix(2.5528787,0,0,-2.5528787,-1687.775,1279.0629)"><g
       id="g321"><g
         id="g327"><g
           id="g329"><path
             d="m 682.619,421.68 h 5.201 v 49.854 h -5.201 z"
             style="fill:url(#linearGradient337);stroke:none"
             id="path339" /></g></g></g></g><g
     id="g341"
     transform="matrix(2.5528787,0,0,-2.5528787,-1687.775,1279.0629)"><g
       id="g343"><g
         id="g349"><g
           id="g351"><path
             d="m 726.888,499.547 c -0.257,-0.103 -25.635,-10.419 -33.346,-13.483 v 0 l -0.159,-0.063 c -3.493,-1.385 -10.764,-4.269 -10.764,-14.468 v 0 h 5.201 c 0,6.666 4.149,8.312 7.481,9.633 v 0 l 0.161,0.064 c 5.97,2.373 22.477,9.07 29.804,12.045 v 0 -46.462 l -33.677,-13.54 0.002,-0.004 c -5.195,-1.634 -8.971,-6.471 -8.972,-12.171 v 0 h 5.201 c 0,3.501 2.414,6.455 5.68,7.313 v 0 c 0.059,0.015 0.118,0.056 0.178,0.097 v 0 l 36.789,14.763 v 57.731 z"
             style="fill:url(#linearGradient361);stroke:none"
             id="path363" /></g></g></g></g><g
     id="g365"
     transform="matrix(2.5528787,0,0,-2.5528787,-1687.775,1279.0629)"><g
       id="g367"><g
         id="g373"><g
           id="g375"><path
             d="m 682.619,421.68 c 0,-7.038 5.758,-12.764 12.834,-12.764 v 0 5.201 c -4.208,0 -7.633,3.392 -7.633,7.563 v 0 z"
             style="fill:url(#linearGradient387);stroke:none"
             id="path389" /></g></g></g></g><g
     id="g391"
     transform="matrix(2.5528787,0,0,-2.5528787,-1687.775,1279.0629)"><g
       id="g393"><g
         id="g399"><g
           id="g401"><path
             d="m 694.258,424.293 v -26.884 l 10.5,6.091 10.503,-6.09 v 26.883 z m 5.2,-5.203 10.602,-0.005 v -12.647 l -5.302,3.074 -5.3,-3.073 z"
             style="fill:url(#linearGradient413);stroke:none"
             id="path415" /></g></g></g></g></svg>
