<?xml version="1.0" encoding="UTF-8" standalone="no"?>
<!-- Created with Inkscape (http://www.inkscape.org/) -->

<svg
   width="1000.0001"
   height="999.99994"
   viewBox="0 0 264.58324 264.58321"
   version="1.1"
   id="svg5"
   xml:space="preserve"
   xmlns:inkscape="http://www.inkscape.org/namespaces/inkscape"
   xmlns:sodipodi="http://sodipodi.sourceforge.net/DTD/sodipodi-0.dtd"
   xmlns="http://www.w3.org/2000/svg"
   xmlns:svg="http://www.w3.org/2000/svg"><sodipodi:namedview
     id="namedview7"
     pagecolor="#505050"
     bordercolor="#ffffff"
     borderopacity="1"
     inkscape:showpageshadow="true"
     inkscape:pageopacity="0"
     inkscape:pagecheckerboard="1"
     inkscape:deskcolor="#505050"
     inkscape:document-units="mm"
     showgrid="false" /><defs
     id="defs2"><linearGradient
       x1="0"
       y1="0"
       x2="1"
       y2="0"
       gradientUnits="userSpaceOnUse"
       gradientTransform="matrix(-34.077831,0,0,34.077831,141.8653,414.36804)"
       spreadMethod="pad"
       id="linearGradient435"><stop
         style="stop-opacity:1;stop-color:#16bde8"
         offset="0"
         id="stop429" /><stop
         style="stop-opacity:1;stop-color:#16bde8"
         offset="0.0587731"
         id="stop431" /><stop
         style="stop-opacity:1;stop-color:#2674bb"
         offset="1"
         id="stop433" /></linearGradient><linearGradient
       x1="0"
       y1="0"
       x2="1"
       y2="0"
       gradientUnits="userSpaceOnUse"
       gradientTransform="matrix(12.798571,0,0,-12.798571,79.050194,439.23334)"
       spreadMethod="pad"
       id="linearGradient457"><stop
         style="stop-opacity:1;stop-color:#16bde8"
         offset="0"
         id="stop451" /><stop
         style="stop-opacity:1;stop-color:#16bde8"
         offset="0.0587731"
         id="stop453" /><stop
         style="stop-opacity:1;stop-color:#2674bb"
         offset="1"
         id="stop455" /></linearGradient><linearGradient
       x1="0"
       y1="0"
       x2="1"
       y2="0"
       gradientUnits="userSpaceOnUse"
       gradientTransform="matrix(13.972297,0,0,-13.972297,79.697014,431.58221)"
       spreadMethod="pad"
       id="linearGradient479"><stop
         style="stop-opacity:1;stop-color:#16bde8"
         offset="0"
         id="stop473" /><stop
         style="stop-opacity:1;stop-color:#16bde8"
         offset="0.0587731"
         id="stop475" /><stop
         style="stop-opacity:1;stop-color:#2674bb"
         offset="1"
         id="stop477" /></linearGradient><linearGradient
       x1="0"
       y1="0"
       x2="1"
       y2="0"
       gradientUnits="userSpaceOnUse"
       gradientTransform="matrix(12.998611,0,0,-12.998611,81.063866,423.91409)"
       spreadMethod="pad"
       id="linearGradient501"><stop
         style="stop-opacity:1;stop-color:#16bde8"
         offset="0"
         id="stop495" /><stop
         style="stop-opacity:1;stop-color:#16bde8"
         offset="0.0587731"
         id="stop497" /><stop
         style="stop-opacity:1;stop-color:#2674bb"
         offset="1"
         id="stop499" /></linearGradient><linearGradient
       x1="0"
       y1="0"
       x2="1"
       y2="0"
       gradientUnits="userSpaceOnUse"
       gradientTransform="matrix(13.072402,0,0,-13.072402,83.888069,416.28342)"
       spreadMethod="pad"
       id="linearGradient523"><stop
         style="stop-opacity:1;stop-color:#16bde8"
         offset="0"
         id="stop517" /><stop
         style="stop-opacity:1;stop-color:#16bde8"
         offset="0.0587731"
         id="stop519" /><stop
         style="stop-opacity:1;stop-color:#2674bb"
         offset="1"
         id="stop521" /></linearGradient><linearGradient
       x1="0"
       y1="0"
       x2="1"
       y2="0"
       gradientUnits="userSpaceOnUse"
       gradientTransform="matrix(0,-13.244195,-13.244195,0,102.80431,457.72672)"
       spreadMethod="pad"
       id="linearGradient545"><stop
         style="stop-opacity:1;stop-color:#16bde8"
         offset="0"
         id="stop539" /><stop
         style="stop-opacity:1;stop-color:#2674bb"
         offset="0.68055915"
         id="stop541" /><stop
         style="stop-opacity:1;stop-color:#2674bb"
         offset="1"
         id="stop543" /></linearGradient><linearGradient
       x1="0"
       y1="0"
       x2="1"
       y2="0"
       gradientUnits="userSpaceOnUse"
       gradientTransform="matrix(0,45.989189,45.989189,0,102.06843,400.97052)"
       spreadMethod="pad"
       id="linearGradient571"><stop
         style="stop-opacity:1;stop-color:#16bde8"
         offset="0"
         id="stop561" /><stop
         style="stop-opacity:1;stop-color:#16bde8"
         offset="0.160216"
         id="stop563" /><stop
         style="stop-opacity:1;stop-color:#2674bb"
         offset="0.848972"
         id="stop565" /><stop
         style="stop-opacity:1;stop-color:#2674bb"
         offset="0.85451778"
         id="stop567" /><stop
         style="stop-opacity:1;stop-color:#2674bb"
         offset="1"
         id="stop569" /></linearGradient><linearGradient
       x1="0"
       y1="0"
       x2="1"
       y2="0"
       gradientUnits="userSpaceOnUse"
       gradientTransform="matrix(0,-25.232803,-25.232803,0,114.90649,449.27255)"
       spreadMethod="pad"
       id="linearGradient591"><stop
         style="stop-opacity:1;stop-color:#16bde8"
         offset="0"
         id="stop587" /><stop
         style="stop-opacity:1;stop-color:#2674bb"
         offset="1"
         id="stop589" /></linearGradient><linearGradient
       x1="0"
       y1="0"
       x2="1"
       y2="0"
       gradientUnits="userSpaceOnUse"
       gradientTransform="matrix(28.094791,48.661606,48.661606,-28.094791,95.200241,456.49194)"
       spreadMethod="pad"
       id="linearGradient613"><stop
         style="stop-opacity:1;stop-color:#16bde8"
         offset="0"
         id="stop607" /><stop
         style="stop-opacity:1;stop-color:#16bde8"
         offset="0.0587731"
         id="stop609" /><stop
         style="stop-opacity:1;stop-color:#2674bb"
         offset="1"
         id="stop611" /></linearGradient></defs><g
     id="g417"
     transform="matrix(2.7400144,0,0,-2.7400143,-160.79672,1363.3393)"><g
       id="g419"><g
         id="g425"><g
           id="g427"><path
             d="m 134.986,418.693 c -4.987,0 -7.653,-1.153 -10.004,-2.172 v 0 c -2.03,-0.879 -3.783,-1.637 -7.172,-1.637 v 0 h -10.022 v -4.84 h 10.022 c 4.391,0 6.89,1.08 9.095,2.034 v 0 c 2.105,0.913 4.096,1.774 8.081,1.774 v 0 h 6.879 v 4.841 z"
             style="fill:url(#linearGradient435);stroke:none"
             id="path437" /></g></g></g></g><g
     id="g439"
     transform="matrix(2.7400144,0,0,-2.7400143,-160.79672,1363.3393)"><g
       id="g441"><g
         id="g447"><g
           id="g449"><path
             d="m 85.266,445.459 c -3.427,0 -6.215,-2.789 -6.215,-6.216 v 0 c 0,-3.427 2.788,-6.216 6.208,-6.216 v 0 l 6.576,-0.019 0.014,4.84 -6.583,0.019 c -0.758,0 -1.375,0.617 -1.375,1.376 v 0 c 0,0.758 0.617,1.375 1.375,1.375 v 0 h 6.576 v 4.841 z"
             style="fill:url(#linearGradient457);stroke:none"
             id="path459" /></g></g></g></g><g
     id="g461"
     transform="matrix(2.7400144,0,0,-2.7400143,-160.79672,1363.3393)"><g
       id="g463"><g
         id="g469"><g
           id="g471"><path
             d="m 79.697,431.581 c 0,-3.452 2.809,-6.261 6.262,-6.261 v 0 h 7.71 v 4.84 h -7.71 c -0.784,0 -1.422,0.638 -1.422,1.421 v 0 c 0,0.785 0.638,1.423 1.415,1.423 v 0 l 6.644,-0.019 0.014,4.84 -6.651,0.02 c -3.453,0 -6.262,-2.81 -6.262,-6.264"
             style="fill:url(#linearGradient479);stroke:none"
             id="path481" /></g></g></g></g><g
     id="g483"
     transform="matrix(2.7400144,0,0,-2.7400143,-160.79672,1363.3393)"><g
       id="g485"><g
         id="g491"><g
           id="g493"><path
             d="m 81.064,423.923 c 0,-3.453 2.801,-6.262 6.244,-6.262 v 0 h 6.755 v 4.84 h -6.755 c -0.774,0 -1.404,0.638 -1.404,1.422 v 0 c 0,0.774 0.63,1.404 1.394,1.404 v 0 l 5.081,-0.019 0.019,4.84 -5.09,0.02 c -3.443,0 -6.244,-2.802 -6.244,-6.245"
             style="fill:url(#linearGradient501);stroke:none"
             id="path503" /></g></g></g></g><g
     id="g505"
     transform="matrix(2.7400144,0,0,-2.7400143,-160.79672,1363.3393)"><g
       id="g507"><g
         id="g513"><g
           id="g515"><path
             d="m 90.157,422.561 c -3.457,0 -6.269,-2.812 -6.269,-6.268 v 0 c 0,-3.456 2.812,-6.267 6.261,-6.267 v 0 l 6.797,-0.02 0.015,4.84 -6.804,0.02 c -0.788,0 -1.429,0.64 -1.429,1.427 v 0 c 0,0.788 0.641,1.428 1.429,1.428 v 0 h 5.112 v 4.84 z"
             style="fill:url(#linearGradient523);stroke:none"
             id="path525" /></g></g></g></g><g
     id="g527"
     transform="matrix(2.7400144,0,0,-2.7400143,-160.79672,1363.3393)"><g
       id="g529"><g
         id="g535"><g
           id="g537"><path
             d="m 89.273,457.727 c -3.706,0 -6.61,-2.908 -6.61,-6.623 v 0 c 0,-3.713 2.904,-6.622 6.61,-6.622 v 0 h 27.06 c 3.708,0 6.612,2.909 6.612,6.622 v 0 c 0,3.715 -2.904,6.623 -6.612,6.623 v 0 z m -1.77,-6.623 c 0,1.05 0.728,1.782 1.77,1.782 v 0 h 27.06 c 1.044,0 1.772,-0.732 1.772,-1.782 v 0 c 0,-1.048 -0.728,-1.782 -1.772,-1.782 v 0 h -27.06 c -1.042,0 -1.77,0.734 -1.77,1.782"
             style="fill:url(#linearGradient545);stroke:none"
             id="path547" /></g></g></g></g><g
     id="g549"
     transform="matrix(2.7400144,0,0,-2.7400143,-160.79672,1363.3393)"><g
       id="g551"><g
         id="g557"><g
           id="g559"><path
             d="m 89.969,446.248 6.732,-45.277 h 11.744 l 5.723,33.375 -4.771,0.817 -5.033,-29.352 h -3.489 l -6.118,41.149 z"
             style="fill:url(#linearGradient571);stroke:none"
             id="path573" /></g></g></g></g><g
     id="g575"
     transform="matrix(2.7400144,0,0,-2.7400143,-160.79672,1363.3393)"><g
       id="g577"><g
         id="g583"><g
           id="g585"><path
             d="m 90.045,449.273 0.539,-2.868 c 0.742,-3.937 4.58,-11.382 13.805,-11.382 v 0 c 3.875,0 5.058,-1.713 6.85,-4.306 v 0 c 2.056,-2.975 4.614,-6.678 11.588,-6.678 v 0 h 3.284 v 4.841 h -3.284 c -4.435,0 -5.765,1.925 -7.605,4.59 v 0 c -1.97,2.847 -4.419,6.393 -10.833,6.393 v 0 c -4.461,0 -6.785,2.464 -7.956,4.57 v 0 h 16.947 c 3.948,0 5.336,-1.097 7.095,-2.484 v 0 c 1.847,-1.455 4.143,-3.267 8.994,-3.267 v 0 h 10.299 v 4.84 h -10.299 c -3.171,0 -4.356,0.935 -5.996,2.228 v 0 c -1.99,1.57 -4.467,3.523 -10.093,3.523 v 0 z"
             style="fill:url(#linearGradient591);stroke:none"
             id="path593" /></g></g></g></g><g
     id="g595"
     transform="matrix(2.7400144,0,0,-2.7400143,-160.79672,1363.3393)"><g
       id="g597"><g
         id="g603"><g
           id="g605"><path
             d="m 107.336,485.715 c 1.324,2.359 1.029,8.41 1.029,8.41 v 0 h -2.325 c -13.861,0 -23.535,-7.969 -23.535,-19.536 v 0 c 0,-10.936 7.65,-18.284 19.037,-18.284 v 0 h 3.628 l 0.136,0.016 c 18.2,2.066 31.41,18.339 31.41,38.698 v 0 2.386 l -2.783,0.037 c -9.081,0 -19.007,-4.579 -26.597,-11.727 m 24.464,6.786 c -1.012,-16.61 -12.006,-29.594 -26.907,-31.355 v 0 h -3.351 c -8.624,0 -14.197,5.277 -14.197,13.443 v 0 c 0,8.21 6.483,13.633 16.297,14.888 v 0 c -0.576,-7.28 -4.396,-13.972 -4.429,-14.034 v 0 l 4.256,-2.305 c 5.897,10.391 17.757,18.389 28.331,19.363"
             style="fill:url(#linearGradient613);stroke:none"
             id="path615" /></g></g></g></g></svg>
