<?xml version="1.0" encoding="UTF-8" standalone="no"?>
<!-- Created with Inkscape (http://www.inkscape.org/) -->

<svg
   width="1000.0001"
   height="999.99994"
   viewBox="0 0 264.58324 264.58321"
   version="1.1"
   id="svg5"
   xml:space="preserve"
   xmlns="http://www.w3.org/2000/svg"
   xmlns:svg="http://www.w3.org/2000/svg"><defs
     id="defs2"><linearGradient
       x1="0"
       y1="0"
       x2="1"
       y2="0"
       gradientUnits="userSpaceOnUse"
       gradientTransform="matrix(10.655668,-12.69893,-12.69893,-10.655668,241.75986,489.8215)"
       spreadMethod="pad"
       id="linearGradient635"><stop
         style="stop-opacity:1;stop-color:#fba929"
         offset="0"
         id="stop629" /><stop
         style="stop-opacity:1;stop-color:#fba929"
         offset="0.0587731"
         id="stop631" /><stop
         style="stop-opacity:1;stop-color:#e28125"
         offset="1"
         id="stop633" /></linearGradient><linearGradient
       x1="0"
       y1="0"
       x2="1"
       y2="0"
       gradientUnits="userSpaceOnUse"
       gradientTransform="matrix(10.655918,-12.699228,-12.699228,-10.655918,282.64536,489.93063)"
       spreadMethod="pad"
       id="linearGradient657"><stop
         style="stop-opacity:1;stop-color:#fba929"
         offset="0"
         id="stop651" /><stop
         style="stop-opacity:1;stop-color:#fba929"
         offset="0.0587731"
         id="stop653" /><stop
         style="stop-opacity:1;stop-color:#e28125"
         offset="1"
         id="stop655" /></linearGradient><linearGradient
       x1="0"
       y1="0"
       x2="1"
       y2="0"
       gradientUnits="userSpaceOnUse"
       gradientTransform="matrix(54.937504,-65.47197,-65.47197,-54.937504,240.2942,473.39239)"
       spreadMethod="pad"
       id="linearGradient683"><stop
         style="stop-opacity:1;stop-color:#fba929"
         offset="0"
         id="stop673" /><stop
         style="stop-opacity:1;stop-color:#fba929"
         offset="0.0587731"
         id="stop675" /><stop
         style="stop-opacity:1;stop-color:#e28125"
         offset="0.855887"
         id="stop677" /><stop
         style="stop-opacity:1;stop-color:#e28125"
         offset="0.86117886"
         id="stop679" /><stop
         style="stop-opacity:1;stop-color:#e28125"
         offset="1"
         id="stop681" /></linearGradient></defs><g
     id="g617"
     transform="matrix(2.7743994,0,0,-2.7743994,-610.10301,1379.3133)"><g
       id="g619"><g
         id="g625"><g
           id="g627"><path
             d="m 238.795,483.472 c 0,-4.572 3.72,-8.292 8.293,-8.292 v 0 c 4.572,0 8.292,3.72 8.292,8.292 v 0 c 0,4.573 -3.72,8.292 -8.292,8.292 v 0 c -4.573,0 -8.293,-3.719 -8.293,-8.292 m 4.68,0 c 0,1.992 1.621,3.613 3.613,3.613 v 0 c 1.991,0 3.612,-1.621 3.612,-3.613 v 0 c 0,-1.992 -1.621,-3.613 -3.612,-3.613 v 0 c -1.992,0 -3.613,1.621 -3.613,3.613"
             style="fill:url(#linearGradient635);stroke:none"
             id="path637" /></g></g></g></g><g
     id="g639"
     transform="matrix(2.7743994,0,0,-2.7743994,-610.10301,1379.3133)"><g
       id="g641"><g
         id="g647"><g
           id="g649"><path
             d="m 279.681,483.582 c 0,-4.574 3.72,-8.294 8.292,-8.294 v 0 c 4.573,0 8.293,3.72 8.293,8.294 v 0 c 0,4.572 -3.72,8.291 -8.293,8.291 v 0 c -4.572,0 -8.292,-3.719 -8.292,-8.291 m 4.679,0 c 0,1.991 1.621,3.612 3.613,3.612 v 0 c 1.993,0 3.613,-1.621 3.613,-3.612 v 0 c 0,-1.993 -1.62,-3.614 -3.613,-3.614 v 0 c -1.992,0 -3.613,1.621 -3.613,3.614"
             style="fill:url(#linearGradient657);stroke:none"
             id="path659" /></g></g></g></g><g
     id="g661"
     transform="matrix(2.7743994,0,0,-2.7743994,-610.10301,1379.3133)"><g
       id="g663"><g
         id="g669"><g
           id="g671"><path
             d="m 277.202,469.959 -9.637,-11.287 -10.496,11.331 c -0.236,0.262 -2.391,2.568 -5.431,2.568 v 0 l -9.998,-0.007 c -2.874,0 -4.909,-2.177 -5.132,-2.425 v 0 l -15.239,-19.164 c -1.968,-2.473 -1.558,-6.084 0.913,-8.052 v 0 c 1.197,-0.953 2.692,-1.379 4.216,-1.21 v 0 c 1.521,0.173 2.882,0.927 3.836,2.124 v 0 l 4.906,6.161 -4.023,-15.637 h 6.109 v -21.763 c 0,-3.452 2.601,-6.054 6.052,-6.054 v 0 c 1.449,0 2.73,0.44 3.739,1.196 v 0 c 1.03,-0.766 2.311,-1.187 3.698,-1.187 v 0 c 3.454,0 6.059,2.599 6.059,6.045 v 0 21.763 h 6.038 l -4.024,15.638 4.266,-5.361 c 0.281,-0.351 0.602,-0.671 0.954,-0.951 v 0 c 1.63,-1.298 3.14,-1.403 4.118,-1.264 v 0 c 0.935,0.133 2.316,0.627 3.62,2.267 v 0 l 6.365,8.367 v -40.491 c 0,-3.428 2.61,-6.013 6.072,-6.013 v 0 c 1.46,0 2.691,0.471 3.657,1.221 v 0 c 1.019,-0.805 2.261,-1.236 3.579,-1.236 v 0 c 0.201,0 0.405,0.011 0.609,0.031 v 0 c 3.116,0.307 5.651,3.189 5.651,6.424 v 0 l 0.001,40.22 7.369,-9.376 c 0.953,-1.197 2.315,-1.951 3.836,-2.124 v 0 c 1.525,-0.172 3.018,0.257 4.215,1.21 v 0 c 2.472,1.968 2.882,5.579 0.927,8.035 v 0 l -14.898,19.061 -0.102,0.121 c -0.222,0.248 -2.257,2.424 -5.129,2.424 v 0 l -11.23,0.007 c -3.037,0 -5.193,-2.306 -5.466,-2.612 m 3.506,-3.098 c 0.248,0.265 1.132,1.018 1.942,1.028 v 0 l 0.03,0.033 h 9.203 l 0.051,-0.036 1.962,-0.002 c 0.602,0 1.327,-0.548 1.613,-0.833 v 0 l 14.844,-18.991 c 0.235,-0.296 0.24,-0.611 0.222,-0.773 v 0 c -0.018,-0.161 -0.093,-0.467 -0.389,-0.702 v 0 c -0.454,-0.361 -1.115,-0.286 -1.467,0.156 v 0 l -12.331,15.688 h -3.389 v -49.436 c 0,-0.806 -0.722,-1.697 -1.43,-1.767 v 0 c -0.359,-0.036 -0.659,0.055 -0.897,0.271 v 0 c -0.274,0.248 -0.431,0.638 -0.431,1.069 v 0 h -0.009 c 0.002,0.064 0.009,0.128 0.009,0.191 v 0 27.662 h -4.679 v -27.662 c 0,-0.062 -0.016,-1.524 -1.379,-1.524 v 0 c -0.885,0 -1.392,0.486 -1.392,1.333 v 0 49.792 h -2.199 l -12.54,-14.794 c -0.31,-0.391 -0.532,-0.501 -0.586,-0.508 v 0 c -0.021,0 -0.221,0.036 -0.544,0.293 v 0 c -0.08,0.064 -0.153,0.136 -0.212,0.209 v 0 l -13.156,14.871 h -2.925 l 6.146,-23.389 h -4.681 v -26.442 c 0,-0.51 -0.179,-1.365 -1.379,-1.365 v 0 c -0.443,0 -0.798,0.124 -1.026,0.357 v 0 c -0.268,0.272 -0.317,0.651 -0.312,0.971 v 0 l -0.055,26.297 -4.679,-0.01 0.055,-26.246 c 0,-0.002 0,-0.003 0,-0.003 v 0 l -0.041,-10e-4 c 0,-0.34 0,-1.375 -1.379,-1.375 v 0 c -0.885,0 -1.373,0.489 -1.373,1.375 v 0 26.442 h -4.751 l 6.013,23.389 h -3.596 l -0.509,0.009 -12.49,-15.686 c -0.361,-0.454 -1.022,-0.528 -1.475,-0.167 v 0 c -0.296,0.235 -0.371,0.541 -0.389,0.702 v 0 c -0.019,0.162 -0.014,0.477 0.223,0.774 v 0 l 15.086,18.978 c 0.301,0.301 1.024,0.845 1.625,0.845 v 0 l 0.536,10e-4 0.033,0.037 h 8.56 l 0.041,-0.031 h 0.828 c 0.815,0 1.711,-0.762 1.971,-1.041 v 0 l 14.097,-15.219 z"
             style="fill:url(#linearGradient683);stroke:none"
             id="path685" /></g></g></g></g></svg>
