<?xml version="1.0" encoding="UTF-8" standalone="no"?>
<!-- Created with Inkscape (http://www.inkscape.org/) -->

<svg
   width="1000.0001"
   height="999.99994"
   viewBox="0 0 264.58324 264.58321"
   version="1.1"
   id="svg5"
   xml:space="preserve"
   xmlns="http://www.w3.org/2000/svg"
   xmlns:svg="http://www.w3.org/2000/svg"><defs
     id="defs2"><linearGradient
       x1="0"
       y1="0"
       x2="1"
       y2="0"
       gradientUnits="userSpaceOnUse"
       gradientTransform="matrix(18.688316,-13.577856,-13.577856,-18.688316,554.5368,471.67334)"
       spreadMethod="pad"
       id="linearGradient35"><stop
         style="stop-opacity:1;stop-color:#d2873f"
         offset="0"
         id="stop31" /><stop
         style="stop-opacity:1;stop-color:#805125"
         offset="1"
         id="stop33" /></linearGradient><linearGradient
       x1="0"
       y1="0"
       x2="1"
       y2="0"
       gradientUnits="userSpaceOnUse"
       gradientTransform="matrix(21.631853,-15.716461,-15.716461,-21.631853,544.38196,474.05185)"
       spreadMethod="pad"
       id="linearGradient57"><stop
         style="stop-opacity:1;stop-color:#d2873f"
         offset="0"
         id="stop51" /><stop
         style="stop-opacity:1;stop-color:#805125"
         offset="0.87994861"
         id="stop53" /><stop
         style="stop-opacity:1;stop-color:#805125"
         offset="1"
         id="stop55" /></linearGradient><linearGradient
       x1="0"
       y1="0"
       x2="1"
       y2="0"
       gradientUnits="userSpaceOnUse"
       gradientTransform="matrix(18.230398,-6.6353226,-6.6353226,-18.230398,537.91174,465.26627)"
       spreadMethod="pad"
       id="linearGradient77"><stop
         style="stop-opacity:1;stop-color:#d2873f"
         offset="0"
         id="stop73" /><stop
         style="stop-opacity:1;stop-color:#805125"
         offset="1"
         id="stop75" /></linearGradient><linearGradient
       x1="0"
       y1="0"
       x2="1"
       y2="0"
       gradientUnits="userSpaceOnUse"
       gradientTransform="matrix(17.784336,-10.267792,-10.267792,-17.784336,546.57983,439.51245)"
       spreadMethod="pad"
       id="linearGradient97"><stop
         style="stop-opacity:1;stop-color:#d2873f"
         offset="0"
         id="stop93" /><stop
         style="stop-opacity:1;stop-color:#805125"
         offset="1"
         id="stop95" /></linearGradient><linearGradient
       x1="0"
       y1="0"
       x2="1"
       y2="0"
       gradientUnits="userSpaceOnUse"
       gradientTransform="matrix(24.557007,-20.605776,-20.605776,-24.557007,559.63135,460.12607)"
       spreadMethod="pad"
       id="linearGradient119"><stop
         style="stop-opacity:1;stop-color:#d2873f"
         offset="0"
         id="stop113" /><stop
         style="stop-opacity:1;stop-color:#805125"
         offset="0.78369906"
         id="stop115" /><stop
         style="stop-opacity:1;stop-color:#805125"
         offset="1"
         id="stop117" /></linearGradient><linearGradient
       x1="0"
       y1="0"
       x2="1"
       y2="0"
       gradientUnits="userSpaceOnUse"
       gradientTransform="matrix(17.644237,-48.477142,-48.477142,-17.644237,543.77521,462.43033)"
       spreadMethod="pad"
       id="linearGradient141"><stop
         style="stop-opacity:1;stop-color:#d2873f"
         offset="0"
         id="stop135" /><stop
         style="stop-opacity:1;stop-color:#805125"
         offset="0.9846881"
         id="stop137" /><stop
         style="stop-opacity:1;stop-color:#805125"
         offset="1"
         id="stop139" /></linearGradient><linearGradient
       x1="0"
       y1="0"
       x2="1"
       y2="0"
       gradientUnits="userSpaceOnUse"
       gradientTransform="matrix(-18.688316,-13.577856,13.577856,-18.688316,601.22131,471.67334)"
       spreadMethod="pad"
       id="linearGradient161"><stop
         style="stop-opacity:1;stop-color:#d2873f"
         offset="0"
         id="stop157" /><stop
         style="stop-opacity:1;stop-color:#805125"
         offset="1"
         id="stop159" /></linearGradient><linearGradient
       x1="0"
       y1="0"
       x2="1"
       y2="0"
       gradientUnits="userSpaceOnUse"
       gradientTransform="matrix(-21.631853,-15.716461,15.716461,-21.631853,611.37616,474.05185)"
       spreadMethod="pad"
       id="linearGradient183"><stop
         style="stop-opacity:1;stop-color:#d2873f"
         offset="0"
         id="stop177" /><stop
         style="stop-opacity:1;stop-color:#805125"
         offset="0.87994861"
         id="stop179" /><stop
         style="stop-opacity:1;stop-color:#805125"
         offset="1"
         id="stop181" /></linearGradient><linearGradient
       x1="0"
       y1="0"
       x2="1"
       y2="0"
       gradientUnits="userSpaceOnUse"
       gradientTransform="matrix(-18.230398,-6.6353226,6.6353226,-18.230398,617.84631,465.26627)"
       spreadMethod="pad"
       id="linearGradient203"><stop
         style="stop-opacity:1;stop-color:#d2873f"
         offset="0"
         id="stop199" /><stop
         style="stop-opacity:1;stop-color:#805125"
         offset="1"
         id="stop201" /></linearGradient><linearGradient
       x1="0"
       y1="0"
       x2="1"
       y2="0"
       gradientUnits="userSpaceOnUse"
       gradientTransform="matrix(-17.784336,-10.267792,10.267792,-17.784336,609.17822,439.51245)"
       spreadMethod="pad"
       id="linearGradient223"><stop
         style="stop-opacity:1;stop-color:#d2873f"
         offset="0"
         id="stop219" /><stop
         style="stop-opacity:1;stop-color:#805125"
         offset="1"
         id="stop221" /></linearGradient><linearGradient
       x1="0"
       y1="0"
       x2="1"
       y2="0"
       gradientUnits="userSpaceOnUse"
       gradientTransform="matrix(-24.557007,-20.605776,20.605776,-24.557007,596.12671,460.12607)"
       spreadMethod="pad"
       id="linearGradient245"><stop
         style="stop-opacity:1;stop-color:#d2873f"
         offset="0"
         id="stop239" /><stop
         style="stop-opacity:1;stop-color:#805125"
         offset="0.78369906"
         id="stop241" /><stop
         style="stop-opacity:1;stop-color:#805125"
         offset="1"
         id="stop243" /></linearGradient><linearGradient
       x1="0"
       y1="0"
       x2="1"
       y2="0"
       gradientUnits="userSpaceOnUse"
       gradientTransform="matrix(-17.644237,-48.477142,48.477142,-17.644237,611.98285,462.43033)"
       spreadMethod="pad"
       id="linearGradient267"><stop
         style="stop-opacity:1;stop-color:#d2873f"
         offset="0"
         id="stop261" /><stop
         style="stop-opacity:1;stop-color:#805125"
         offset="0.9846881"
         id="stop263" /><stop
         style="stop-opacity:1;stop-color:#805125"
         offset="1"
         id="stop265" /></linearGradient></defs><g
     id="g19"
     transform="matrix(2.6293476,0,0,-2.6293475,-1387.152,1308.8649)"><g
       id="g21"><g
         id="g27"><g
           id="g29"><path
             d="m 556.396,472.526 v -9.763 h 4.56 v 9.763 c 0,0.537 0.659,1.01 1.41,1.01 v 0 c 0.75,0 1.409,-0.473 1.409,-1.01 v 0 -21.162 h 4.56 v 21.162 c 0,3.071 -2.678,5.569 -5.969,5.569 v 0 c -3.292,0 -5.97,-2.498 -5.97,-5.569"
             style="fill:url(#linearGradient35);stroke:none"
             id="path37" /></g></g></g></g><g
     id="g39"
     transform="matrix(2.6293476,0,0,-2.6293475,-1387.152,1308.8649)"><g
       id="g41"><g
         id="g47"><g
           id="g49"><path
             d="m 548.938,478.23 v -26.866 h 4.559 v 26.866 c 0,1.478 1.09,1.478 1.447,1.478 v 0 c 1.341,0 1.446,-1.131 1.446,-1.478 v 0 -26.866 h 4.559 v 26.866 c 0,2.927 -2.105,6.037 -6.005,6.037 v 0 c -3.943,0 -6.006,-3.036 -6.006,-6.037"
             style="fill:url(#linearGradient57);stroke:none"
             id="path59" /></g></g></g></g><g
     id="g61"
     transform="matrix(2.6293476,0,0,-2.6293475,-1387.152,1308.8649)"><g
       id="g63"><g
         id="g69"><g
           id="g71"><path
             d="m 541.486,474.171 v -22.538 l 4.559,-7.702 v 30.24 c 0,0.477 0.594,1.009 1.447,1.009 v 0 c 0.852,0 1.446,-0.532 1.446,-1.009 v 0 -22.807 h 4.559 v 22.807 c 0,3.071 -2.693,5.569 -6.005,5.569 v 0 c -3.312,0 -6.006,-2.498 -6.006,-5.569"
             style="fill:url(#linearGradient77);stroke:none"
             id="path79" /></g></g></g></g><g
     id="g81"
     transform="matrix(2.6293476,0,0,-2.6293475,-1387.152,1308.8649)"><g
       id="g83"><g
         id="g89"><g
           id="g91"><path
             d="m 548.417,438.844 c 3.879,-0.342 9.651,-3.982 9.651,-12.608 v 0 h 4.559 c 0,10.46 -6.947,16.545 -13.811,17.15 v 0 z"
             style="fill:url(#linearGradient97);stroke:none"
             id="path99" /></g></g></g></g><g
     id="g101"
     transform="matrix(2.6293476,0,0,-2.6293475,-1387.152,1308.8649)"><g
       id="g103"><g
         id="g109"><g
           id="g111"><path
             d="m 568.272,470.424 0.047,-5.396 c 0,0.478 0.594,1.01 1.446,1.01 v 0 c 1.205,0 1.446,-0.831 1.446,-1.309 v 0 -35.241 h 4.56 v 35.241 c 0,3.072 -2.299,5.868 -6.006,5.868 v 0 c -0.515,0 -1.015,-0.06 -1.493,-0.173"
             style="fill:url(#linearGradient119);stroke:none"
             id="path121" /></g></g></g></g><g
     id="g123"
     transform="matrix(2.6293476,0,0,-2.6293475,-1387.152,1308.8649)"><g
       id="g125"><g
         id="g131"><g
           id="g133"><path
             d="m 530.955,457.731 c -1.342,-0.646 -2.339,-1.882 -2.807,-3.481 v 0 c -0.519,-1.772 -0.307,-3.678 0.579,-5.112 v 0 c 0.093,-0.148 9.324,-14.857 11.599,-20.023 v 0 c 0.811,-1.839 2.198,-4.418 2.5,-4.979 v 0 c 2.524,-5.982 8.834,-9.991 15.745,-9.991 v 0 c 9.484,0 17.2,6.882 17.2,15.343 v 0 h -4.56 c 0,-5.946 -5.671,-10.784 -12.64,-10.784 v 0 c -5.924,0 -10.083,3.659 -11.577,7.286 v 0 l -0.106,0.223 c -0.016,0.029 -1.574,2.887 -2.389,4.739 v 0 c -2.408,5.47 -11.524,19.996 -11.901,20.596 v 0 c -0.162,0.261 -0.242,0.848 -0.074,1.419 v 0 c 0.107,0.368 0.281,0.593 0.407,0.655 v 0 c 0.817,0.39 1.795,0.081 2.155,-0.502 v 0 l 6.767,-10.43 4.192,1.241 -4.559,7.702 -2.548,3.926 c -1.108,1.794 -3.12,2.804 -5.205,2.804 v 0 c -0.936,0 -1.887,-0.204 -2.778,-0.632"
             style="fill:url(#linearGradient141);stroke:none"
             id="path143" /></g></g></g></g><g
     id="g145"
     transform="matrix(2.6293476,0,0,-2.6293475,-1387.152,1308.8649)"><g
       id="g147"><g
         id="g153"><g
           id="g155"><path
             d="m 587.423,472.526 v -21.162 h 4.56 v 21.162 c 0,0.537 0.659,1.01 1.409,1.01 v 0 c 0.751,0 1.41,-0.473 1.41,-1.01 v 0 -9.763 h 4.56 v 9.763 c 0,3.071 -2.677,5.569 -5.97,5.569 v 0 c -3.292,0 -5.969,-2.498 -5.969,-5.569"
             style="fill:url(#linearGradient161);stroke:none"
             id="path163" /></g></g></g></g><g
     id="g165"
     transform="matrix(2.6293476,0,0,-2.6293475,-1387.152,1308.8649)"><g
       id="g167"><g
         id="g173"><g
           id="g175"><path
             d="m 594.809,478.23 v -26.866 h 4.559 v 26.866 c 0,0.347 0.105,1.478 1.446,1.478 v 0 c 0.357,0 1.447,0 1.447,-1.478 v 0 -26.866 h 4.559 v 26.866 c 0,3.001 -2.062,6.037 -6.006,6.037 v 0 c -3.901,0 -6.005,-3.11 -6.005,-6.037"
             style="fill:url(#linearGradient183);stroke:none"
             id="path185" /></g></g></g></g><g
     id="g187"
     transform="matrix(2.6293476,0,0,-2.6293475,-1387.152,1308.8649)"><g
       id="g189"><g
         id="g195"><g
           id="g197"><path
             d="m 602.261,474.171 v -22.807 h 4.559 v 22.807 c 0,0.477 0.594,1.009 1.446,1.009 v 0 c 0.852,0 1.446,-0.532 1.446,-1.009 v 0 -30.24 l 4.56,7.702 v 22.538 c 0,3.071 -2.695,5.569 -6.006,5.569 v 0 c -3.312,0 -6.005,-2.498 -6.005,-5.569"
             style="fill:url(#linearGradient203);stroke:none"
             id="path205" /></g></g></g></g><g
     id="g207"
     transform="matrix(2.6293476,0,0,-2.6293475,-1387.152,1308.8649)"><g
       id="g209"><g
         id="g215"><g
           id="g217"><path
             d="m 593.131,426.236 h 4.559 c 0,8.626 5.772,12.266 9.652,12.608 v 0 l -0.4,4.542 c -6.863,-0.605 -13.811,-6.69 -13.811,-17.15"
             style="fill:url(#linearGradient223);stroke:none"
             id="path225" /></g></g></g></g><g
     id="g227"
     transform="matrix(2.6293476,0,0,-2.6293475,-1387.152,1308.8649)"><g
       id="g229"><g
         id="g235"><g
           id="g237"><path
             d="m 579.988,464.729 v -35.241 h 4.559 v 35.241 c 0,0.478 0.242,1.309 1.446,1.309 v 0 c 0.851,0 1.445,-0.532 1.445,-1.01 v 0 l 0.049,5.396 c -0.478,0.113 -0.979,0.173 -1.494,0.173 v 0 c -3.707,0 -6.005,-2.796 -6.005,-5.868"
             style="fill:url(#linearGradient245);stroke:none"
             id="path247" /></g></g></g></g><g
     id="g249"
     transform="matrix(2.6293476,0,0,-2.6293475,-1387.152,1308.8649)"><g
       id="g251"><g
         id="g257"><g
           id="g259"><path
             d="m 616.82,455.559 -2.548,-3.926 -4.56,-7.702 4.193,-1.241 6.767,10.43 c 0.36,0.583 1.339,0.892 2.154,0.502 v 0 c 0.126,-0.062 0.301,-0.287 0.409,-0.655 v 0 c 0.167,-0.571 0.086,-1.158 -0.075,-1.419 v 0 c -0.377,-0.6 -9.493,-15.126 -11.901,-20.596 v 0 c -0.816,-1.852 -2.373,-4.71 -2.388,-4.739 v 0 l -0.107,-0.223 c -1.494,-3.627 -5.653,-7.286 -11.576,-7.286 v 0 c -6.97,0 -12.641,4.838 -12.641,10.784 v 0 h -4.559 c 0,-8.461 7.716,-15.343 17.2,-15.343 v 0 c 6.909,0 13.22,4.009 15.743,9.991 v 0 c 0.304,0.561 1.691,3.14 2.501,4.979 v 0 c 2.276,5.166 11.506,19.875 11.599,20.023 v 0 c 0.886,1.434 1.099,3.34 0.579,5.112 v 0 c -0.468,1.599 -1.465,2.835 -2.807,3.481 v 0 c -0.891,0.428 -1.842,0.632 -2.779,0.632 v 0 c -2.085,0 -4.096,-1.01 -5.204,-2.804"
             style="fill:url(#linearGradient267);stroke:none"
             id="path269" /></g></g></g></g></svg>
