<?xml version="1.0" encoding="UTF-8" standalone="no"?>
<!-- Created with Inkscape (http://www.inkscape.org/) -->

<svg
   width="1000.0001"
   height="999.99994"
   viewBox="0 0 264.58324 264.58321"
   version="1.1"
   id="svg5"
   xml:space="preserve"
   xmlns:inkscape="http://www.inkscape.org/namespaces/inkscape"
   xmlns:sodipodi="http://sodipodi.sourceforge.net/DTD/sodipodi-0.dtd"
   xmlns="http://www.w3.org/2000/svg"
   xmlns:svg="http://www.w3.org/2000/svg"><sodipodi:namedview
     id="namedview7"
     pagecolor="#505050"
     bordercolor="#ffffff"
     borderopacity="1"
     inkscape:showpageshadow="true"
     inkscape:pageopacity="0"
     inkscape:pagecheckerboard="1"
     inkscape:deskcolor="#505050"
     inkscape:document-units="mm"
     showgrid="false" /><defs
     id="defs2"><linearGradient
       x1="0"
       y1="0"
       x2="1"
       y2="0"
       gradientUnits="userSpaceOnUse"
       gradientTransform="matrix(27.057922,-32.246376,-32.246376,-27.057922,417.98553,469.21591)"
       spreadMethod="pad"
       id="linearGradient703"><stop
         style="stop-opacity:1;stop-color:#ee9522"
         offset="0"
         id="stop699" /><stop
         style="stop-opacity:1;stop-color:#de1e26"
         offset="1"
         id="stop701" /></linearGradient><linearGradient
       x1="0"
       y1="0"
       x2="1"
       y2="0"
       gradientUnits="userSpaceOnUse"
       gradientTransform="matrix(47.79409,-27.593931,-27.593931,-47.79409,386.54199,466.4711)"
       spreadMethod="pad"
       id="linearGradient727"><stop
         style="stop-opacity:1;stop-color:#ee9522"
         offset="0"
         id="stop719" /><stop
         style="stop-opacity:1;stop-color:#ee9522"
         offset="0.05965"
         id="stop721" /><stop
         style="stop-opacity:1;stop-color:#ee9522"
         offset="0.12051066"
         id="stop723" /><stop
         style="stop-opacity:1;stop-color:#de1e26"
         offset="1"
         id="stop725" /></linearGradient></defs><g
     id="g687"
     transform="matrix(3.7103831,0,0,-3.710383,-1433.7877,1799.7243)"><g
       id="g689"><g
         id="g695"><g
           id="g697"><path
             d="m 422.581,471.869 c -0.241,-0.431 -0.729,-1.025 -0.606,-1.28 v 0 c 1.442,-2.983 2.451,-6.011 2.374,-9.435 v 0 h 0.374 v 0.285 c 0,7.705 6.238,13.972 13.857,13.972 v 0 c 7.619,0 13.817,-6.267 13.817,-13.972 v 0 c 0,-4.092 -2.15,-7.445 -5.052,-10.83 v 0 l -25.207,-25.433 v -7.427 l 28.705,28.944 c 4.352,3.92 6.804,9.174 6.804,14.746 v 0 c 0,10.599 -8.553,19.223 -19.067,19.223 v 0 c -6.558,0 -12.51,-3.229 -15.999,-8.793"
             style="fill:url(#linearGradient703);stroke:none"
             id="path705" /></g></g></g></g><g
     id="g707"
     transform="matrix(3.7103831,0,0,-3.710383,-1433.7877,1799.7243)"><g
       id="g709"><g
         id="g715"><g
           id="g717"><path
             d="m 386.627,461.439 c 0,-5.636 2.172,-10.157 6.693,-14.617 v 0 l 28.818,-29.073 v 7.427 l -25.163,25.419 -0.158,0.145 c -2.979,2.994 -4.94,6.567 -4.94,10.699 v 0 c 0,7.705 6.199,13.972 13.818,13.972 v 0 c 7.618,0 13.817,-6.267 13.817,-13.972 v 0 -0.285 h 5.21 c 0.083,3.716 -2.292,9.45 -2.585,10.011 v 0 c -3.428,5.871 -9.682,9.497 -16.442,9.497 v 0 c -10.515,0 -19.068,-8.624 -19.068,-19.223"
             style="fill:url(#linearGradient727);stroke:none"
             id="path729" /></g></g></g></g></svg>
